<svg width="22" height="21" viewBox="0 0 22 21" fill="none" xmlns="http://www.w3.org/2000/svg">
<path d="M13.17 19.5691C17.354 19.2921 20.686 15.9121 20.96 11.6691C21.013 10.8391 21.013 9.97914 20.96 9.14914C20.686 4.90714 17.354 1.52914 13.17 1.25014C11.7249 1.1549 10.2751 1.1549 8.82997 1.25014C4.64597 1.52814 1.31397 4.90714 1.03997 9.15014C0.987001 9.9893 0.987001 10.831 1.03997 11.6701C1.13997 13.2151 1.82297 14.6461 2.62797 15.8541C3.09497 16.6991 2.78697 17.7541 2.29997 18.6771C1.94997 19.3421 1.77397 19.6741 1.91497 19.9141C2.05497 20.1541 2.36997 20.1621 2.99897 20.1771C4.24397 20.2071 5.08297 19.8551 5.74897 19.3641C6.12597 19.0851 6.31497 18.9461 6.44497 18.9301C6.57497 18.9141 6.83197 19.0201 7.34397 19.2301C7.80397 19.4201 8.33897 19.5371 8.82897 19.5701C10.254 19.6641 11.743 19.6641 13.171 19.5701L13.17 19.5691Z" stroke="#0F172A" stroke-width="1.5" stroke-linejoin="round"/>
<path d="M6.5 13.6787L8.342 8.15271C8.38824 8.01481 8.47664 7.89491 8.59471 7.80997C8.71278 7.72503 8.85455 7.67933 9 7.67933C9.14545 7.67933 9.28722 7.72503 9.40529 7.80997C9.52336 7.89491 9.61176 8.01481 9.658 8.15271L11.5 13.6787M14.5 7.67871V13.6787M7.5 11.6787H10.5" stroke="#0F172A" stroke-width="1.5" stroke-linecap="round" stroke-linejoin="round"/>
</svg>
