<svg width="24" height="25" viewBox="0 0 24 25" fill="none" xmlns="http://www.w3.org/2000/svg">
<g clip-path="url(#clip0_5_3364)">
<path d="M4.79995 10.2786C4.7993 8.7826 5.26463 7.32358 6.13129 6.10422C6.99796 4.88487 8.22291 3.96575 9.63595 3.47457C9.58123 3.13175 9.60154 2.78113 9.69547 2.44691C9.78941 2.11269 9.95473 1.80283 10.18 1.53871C10.4054 1.27459 10.6853 1.06249 11.0005 0.917047C11.3157 0.771607 11.6588 0.696289 12.006 0.696289C12.3531 0.696289 12.6962 0.771607 13.0114 0.917047C13.3266 1.06249 13.6066 1.27459 13.8319 1.53871C14.0572 1.80283 14.2225 2.11269 14.3164 2.44691C14.4104 2.78113 14.4307 3.13175 14.376 3.47457C15.7867 3.96776 17.0091 4.88775 17.8735 6.10693C18.7379 7.32611 19.2015 8.78406 19.2 10.2786V17.4786L22.8 19.8786V21.0786H1.19995V19.8786L4.79995 17.4786V10.2786ZM14.4 22.2786C14.4 22.9151 14.1471 23.5255 13.697 23.9756C13.2469 24.4257 12.6365 24.6786 12 24.6786C11.3634 24.6786 10.753 24.4257 10.3029 23.9756C9.85281 23.5255 9.59995 22.9151 9.59995 22.2786H14.4Z" fill="#0F172A"/>
</g>
<defs>
<clipPath id="clip0_5_3364">
<rect width="24" height="24" fill="white" transform="translate(0 0.678711)"/>
</clipPath>
</defs>
</svg>
