<svg width="20" height="20" viewBox="0 0 20 20" fill="none" xmlns="http://www.w3.org/2000/svg">
<path d="M7.65979 17.9365C7.52559 17.8013 7.44202 17.6106 7.44202 17.4082C7.44204 17.3478 7.44685 17.2913 7.45569 17.2451L8.25549 13.4365L8.38245 12.834H2.49963C2.19049 12.8339 1.8941 12.7107 1.67542 12.4922C1.45662 12.2734 1.33362 11.9764 1.33362 11.667V10C1.33366 9.85238 1.36206 9.71625 1.41467 9.58008L3.92639 3.71387L3.92834 3.70898C4.10243 3.29156 4.5144 3.00013 4.99963 3H12.4996C12.809 3 13.1061 3.12311 13.3248 3.3418C13.5436 3.56059 13.6666 3.85757 13.6666 4.16699V12.5C13.6666 12.8211 13.5388 13.1122 13.3209 13.3301L8.19104 18.4619L7.65979 17.9365ZM16.3336 12V3H18.6666V12H16.3336Z" stroke="black"/>
</svg>
