<svg width="20" height="20" viewBox="0 0 20 20" fill="none" xmlns="http://www.w3.org/2000/svg">
<path d="M12.3402 2.06348C12.4744 2.19871 12.558 2.38945 12.558 2.5918C12.558 2.65222 12.5532 2.70866 12.5443 2.75488L11.7445 6.56348L11.6176 7.16602H17.5004C17.8095 7.1661 18.1059 7.2893 18.3246 7.50781C18.5434 7.7266 18.6664 8.02359 18.6664 8.33301V10C18.6663 10.1476 18.6379 10.2838 18.5853 10.4199L16.0736 16.2861L16.0717 16.291C15.8976 16.7084 15.4856 16.9999 15.0004 17H7.50037C7.19102 17 6.89395 16.8769 6.67517 16.6582C6.45638 16.4394 6.33337 16.1424 6.33337 15.833V7.5C6.33337 7.17894 6.46116 6.88784 6.67908 6.66992L11.809 1.53809L12.3402 2.06348ZM3.66638 8V17H1.33337V8H3.66638Z" stroke="black"/>
</svg>
