<svg width="4" height="14" viewBox="0 0 4 14" fill="none" xmlns="http://www.w3.org/2000/svg">
<path d="M0.75 2C0.75 1.825 0.75 1.73875 0.76 1.66625C0.791818 1.43714 0.897536 1.22466 1.0611 1.0611C1.22466 0.897536 1.43714 0.791818 1.66625 0.76C1.7375 0.75 1.825 0.75 2 0.75C2.175 0.75 2.26125 0.75 2.33375 0.76C2.56287 0.791818 2.77534 0.897536 2.9389 1.0611C3.10246 1.22466 3.20818 1.43714 3.24 1.66625C3.25 1.7375 3.25 1.825 3.25 2C3.25 2.175 3.25 2.26125 3.24 2.33375C3.20818 2.56287 3.10246 2.77534 2.9389 2.9389C2.77534 3.10246 2.56287 3.20818 2.33375 3.24C2.2625 3.25 2.175 3.25 2 3.25C1.825 3.25 1.73875 3.25 1.66625 3.24C1.43714 3.20818 1.22466 3.10246 1.0611 2.9389C0.897536 2.77534 0.791818 2.56287 0.76 2.33375C0.75 2.2625 0.75 2.175 0.75 2ZM0.75 7C0.75 6.825 0.75 6.73875 0.76 6.66625C0.791818 6.43714 0.897536 6.22466 1.0611 6.0611C1.22466 5.89754 1.43714 5.79182 1.66625 5.76C1.7375 5.75 1.825 5.75 2 5.75C2.175 5.75 2.26125 5.75 2.33375 5.76C2.56287 5.79182 2.77534 5.89754 2.9389 6.0611C3.10246 6.22466 3.20818 6.43714 3.24 6.66625C3.25 6.7375 3.25 6.825 3.25 7C3.25 7.175 3.25 7.26125 3.24 7.33375C3.20818 7.56286 3.10246 7.77534 2.9389 7.9389C2.77534 8.10246 2.56287 8.20818 2.33375 8.24C2.2625 8.25 2.175 8.25 2 8.25C1.825 8.25 1.73875 8.25 1.66625 8.24C1.43714 8.20818 1.22466 8.10246 1.0611 7.9389C0.897536 7.77534 0.791818 7.56286 0.76 7.33375C0.75 7.2625 0.75 7.175 0.75 7ZM0.75 12C0.75 11.8263 0.75 11.7387 0.76 11.6663C0.792004 11.4375 0.897651 11.2255 1.06095 11.0622C1.22424 10.8989 1.43629 10.7933 1.665 10.7612C1.73875 10.7512 1.825 10.7513 1.99875 10.7513C2.1725 10.7513 2.26125 10.7512 2.3325 10.7612C2.56121 10.7933 2.77326 10.8989 2.93655 11.0622C3.09985 11.2255 3.2055 11.4375 3.2375 11.6663C3.2475 11.7387 3.2475 11.8263 3.2475 12C3.2475 12.1737 3.2475 12.2613 3.2375 12.3337C3.2055 12.5625 3.09985 12.7745 2.93655 12.9378C2.77326 13.1011 2.56121 13.2067 2.3325 13.2388C2.26 13.2488 2.1725 13.2487 1.99875 13.2487C1.825 13.2487 1.7375 13.2488 1.665 13.2388C1.43629 13.2067 1.22424 13.1011 1.06095 12.9378C0.897651 12.7745 0.792004 12.5625 0.76 12.3337C0.75 12.2613 0.75 12.1737 0.75 12Z" fill="#4B5563"/>
</svg>
