<svg width="21" height="22" viewBox="0 0 21 22" fill="none" xmlns="http://www.w3.org/2000/svg">
<path d="M13.096 4.58254C12.4944 3.96985 11.7775 3.48241 10.9865 3.14837C10.1955 2.81433 9.34621 2.64031 8.4876 2.63637C7.62899 2.63242 6.7781 2.79863 5.98409 3.12538C5.19008 3.45214 4.46867 3.93297 3.86154 4.54011C3.2544 5.14724 2.77357 5.86865 2.44681 6.66266C2.12006 7.45667 1.95385 8.30756 1.9578 9.16617C1.96174 10.0248 2.13576 10.8741 2.4698 11.6651C2.80384 12.456 3.29128 13.173 3.90397 13.7745C5.12672 14.975 6.77405 15.6441 8.4876 15.6362C10.2011 15.6284 11.8423 14.9442 13.0539 13.7325C14.2656 12.5208 14.9498 10.8797 14.9577 9.16617C14.9655 7.45262 14.2965 5.80529 13.096 4.58254ZM2.48997 3.16854C4.02279 1.6361 6.08312 0.747112 8.24965 0.683368C10.4162 0.619624 12.5252 1.38594 14.1455 2.82561C15.7657 4.26527 16.7748 6.26953 16.9664 8.42851C17.1579 10.5875 16.5175 12.7381 15.176 14.4405L20.521 19.7855L19.107 21.1995L13.762 15.8545C12.059 17.1911 9.91021 17.8276 7.75403 17.6341C5.59784 17.4407 3.59667 16.432 2.15874 14.8136C0.720816 13.1953 -0.0455368 11.0894 0.0160132 8.92544C0.0775633 6.76146 0.962379 4.7025 2.48997 3.16854Z" fill="#0F172A"/>
</svg>
