<svg width="20" height="20" viewBox="0 0 20 20" fill="none" xmlns="http://www.w3.org/2000/svg">
<path fill-rule="evenodd" clip-rule="evenodd" d="M13.7501 1.875C13.3538 1.87487 12.9624 1.96168 12.6033 2.12932C12.2443 2.29697 11.9264 2.54135 11.6721 2.84523C11.4178 3.14911 11.2333 3.50509 11.1316 3.88806C11.0299 4.27103 11.0134 4.67165 11.0834 5.06167L7.14173 7.82167L7.08506 7.86583C6.68517 7.55324 6.20549 7.3593 5.70071 7.30614C5.19593 7.25299 4.68637 7.34275 4.23014 7.56519C3.77391 7.78763 3.38937 8.13381 3.12037 8.56423C2.85137 8.99466 2.70874 9.49201 2.70874 9.99958C2.70874 10.5072 2.85137 11.0045 3.12037 11.4349C3.38937 11.8654 3.77391 12.2115 4.23014 12.434C4.68637 12.6564 5.19593 12.7462 5.70071 12.693C6.20549 12.6399 6.68517 12.4459 7.08506 12.1333L7.14173 12.1783L11.0834 14.9383C11.0556 15.0939 11.0417 15.2533 11.0417 15.4167C11.0418 16.0587 11.27 16.6799 11.6856 17.1693C12.1012 17.6587 12.6772 17.9845 13.3108 18.0887C13.9443 18.1928 14.5943 18.0685 15.1447 17.7379C15.6951 17.4072 16.1101 16.8918 16.3157 16.2836C16.5214 15.6753 16.5042 15.0138 16.2673 14.417C16.0305 13.8203 15.5893 13.3271 15.0225 13.0254C14.4557 12.7237 13.8002 12.6333 13.1729 12.7701C12.5455 12.9069 11.9872 13.2622 11.5976 13.7725L7.86506 11.1583C8.03173 10.8067 8.12506 10.4142 8.12506 9.99917C8.12506 9.58417 8.03173 9.19083 7.86506 8.84L11.5984 6.22667C11.8779 6.59289 12.2463 6.88174 12.6686 7.0659C13.091 7.25006 13.5533 7.32344 14.0119 7.27909C14.4704 7.23475 14.9101 7.07415 15.2894 6.81248C15.6686 6.55082 15.9748 6.19674 16.179 5.78374C16.3832 5.37074 16.4786 4.91247 16.4563 4.45228C16.4341 3.99209 16.2947 3.5452 16.0516 3.15387C15.8084 2.76255 15.4694 2.43972 15.0667 2.21594C14.6639 1.99215 14.2108 1.87481 13.7501 1.875ZM12.2917 4.58333C12.2917 4.19656 12.4454 3.82563 12.7189 3.55214C12.9924 3.27865 13.3633 3.125 13.7501 3.125C14.1368 3.125 14.5078 3.27865 14.7813 3.55214C15.0547 3.82563 15.2084 4.19656 15.2084 4.58333C15.2084 4.97011 15.0547 5.34104 14.7813 5.61453C14.5078 5.88802 14.1368 6.04167 13.7501 6.04167C13.3633 6.04167 12.9924 5.88802 12.7189 5.61453C12.4454 5.34104 12.2917 4.97011 12.2917 4.58333ZM5.41673 8.54167C5.02995 8.54167 4.65902 8.69531 4.38553 8.9688C4.11204 9.24229 3.95839 9.61323 3.95839 10C3.95839 10.3868 4.11204 10.7577 4.38553 11.0312C4.65902 11.3047 5.02995 11.4583 5.41673 11.4583C5.8035 11.4583 6.17443 11.3047 6.44792 11.0312C6.72142 10.7577 6.87506 10.3868 6.87506 10C6.87506 9.61323 6.72142 9.24229 6.44792 8.9688C6.17443 8.69531 5.8035 8.54167 5.41673 8.54167ZM13.7501 13.9583C13.3633 13.9583 12.9924 14.112 12.7189 14.3855C12.4454 14.659 12.2917 15.0299 12.2917 15.4167C12.2917 15.8034 12.4454 16.1744 12.7189 16.4479C12.9924 16.7214 13.3633 16.875 13.7501 16.875C14.1368 16.875 14.5078 16.7214 14.7813 16.4479C15.0547 16.1744 15.2084 15.8034 15.2084 15.4167C15.2084 15.0299 15.0547 14.659 14.7813 14.3855C14.5078 14.112 14.1368 13.9583 13.7501 13.9583Z" fill="black"/>
</svg>
